<svg xmlns="http://www.w3.org/2000/svg" id="HyL9pBo6f" viewBox="0 0 523 534"><style>@-webkit-keyframes SkEIqpSsTG_Animation{1%{opacity: 0;}10%{opacity: 0;}15%{opacity: 1;}20%{opacity: 0;}25%{opacity: 1;}30%{opacity: 0;}35%{opacity: 1;}40%{opacity: 0;}50%{opacity: 1;}60.33%{opacity: 0;}70%{opacity: 1;}80%{opacity: 0;}90%{opacity: 1;}100%{opacity: 0;}0%{opacity: 0;}}@keyframes SkEIqpSsTG_Animation{1%{opacity: 0;}10%{opacity: 0;}15%{opacity: 1;}20%{opacity: 0;}25%{opacity: 1;}30%{opacity: 0;}35%{opacity: 1;}40%{opacity: 0;}50%{opacity: 1;}60.33%{opacity: 0;}70%{opacity: 1;}80%{opacity: 0;}90%{opacity: 1;}100%{opacity: 0;}0%{opacity: 0;}}@-webkit-keyframes H1U8qTSiTM_rJ5eCHsTz_Animation{1%{-webkit-transform: translate(0px, -400px);transform: translate(0px, -400px);}5%{-webkit-transform: translate(0px, -400px);transform: translate(0px, -400px);}10%{-webkit-transform: translate(0px, 0px);transform: translate(0px, 0px);}0%{-webkit-transform: translate(0px, -400px);transform: translate(0px, -400px);}100%{-webkit-transform: translate(0px, 0px);transform: translate(0px, 0px);}}@keyframes H1U8qTSiTM_rJ5eCHsTz_Animation{1%{-webkit-transform: translate(0px, -400px);transform: translate(0px, -400px);}5%{-webkit-transform: translate(0px, -400px);transform: translate(0px, -400px);}10%{-webkit-transform: translate(0px, 0px);transform: translate(0px, 0px);}0%{-webkit-transform: translate(0px, -400px);transform: translate(0px, -400px);}100%{-webkit-transform: translate(0px, 0px);transform: translate(0px, 0px);}}@-webkit-keyframes BJglIc6HiaG_SyHAprjTM_Animation{1%{-webkit-transform: translate(0px, 400px);transform: translate(0px, 400px);}5%{-webkit-transform: translate(0px, 0px);transform: translate(0px, 0px);}0%{-webkit-transform: translate(0px, 400px);transform: translate(0px, 400px);}100%{-webkit-transform: translate(0px, 0px);transform: translate(0px, 0px);}}@keyframes BJglIc6HiaG_SyHAprjTM_Animation{1%{-webkit-transform: translate(0px, 400px);transform: translate(0px, 400px);}5%{-webkit-transform: translate(0px, 0px);transform: translate(0px, 0px);}0%{-webkit-transform: translate(0px, 400px);transform: translate(0px, 400px);}100%{-webkit-transform: translate(0px, 0px);transform: translate(0px, 0px);}}@-webkit-keyframes HkQLqTrsTM_BJ8sTSsTG_Animation{1%{-webkit-transform: scale(0, 0);transform: scale(0, 0);}5%{-webkit-transform: scale(1, 1);transform: scale(1, 1);}0%{-webkit-transform: scale(0, 0);transform: scale(0, 0);}100%{-webkit-transform: scale(1, 1);transform: scale(1, 1);}}@keyframes HkQLqTrsTM_BJ8sTSsTG_Animation{1%{-webkit-transform: scale(0, 0);transform: scale(0, 0);}5%{-webkit-transform: scale(1, 1);transform: scale(1, 1);}0%{-webkit-transform: scale(0, 0);transform: scale(0, 0);}100%{-webkit-transform: scale(1, 1);transform: scale(1, 1);}}#HyL9pBo6f *{-webkit-animation-duration: 10s;animation-duration: 10s;-webkit-animation-iteration-count: infinite;animation-iteration-count: infinite;-webkit-animation-timing-function: cubic-bezier(0, 0, 1, 1);animation-timing-function: cubic-bezier(0, 0, 1, 1);}#rkbUqpHiTz{fill: none;}#HkQLqTrsTM{fill-rule: evenodd;clip-rule: evenodd;fill: #FEBF00;}#rJH856Hspz{fill-rule: evenodd;clip-rule: evenodd;fill: #70AC47;}#BkDI5TBoaG{fill-rule: evenodd;clip-rule: evenodd;fill: #7F7F7F;}#rkuU5aBsTG{fill-rule: evenodd;clip-rule: evenodd;fill: #70AC47;}#HJKU5aSjpG{fill-rule: evenodd;clip-rule: evenodd;fill: #FEFEFE;}#HycLqTBipG{fill-rule: evenodd;clip-rule: evenodd;fill: #FEFEFE;}#HJjIcTBi6G{fill-rule: evenodd;clip-rule: evenodd;fill: #70AC47;}#Hy2L9TBipM{fill-rule: evenodd;clip-rule: evenodd;fill: #FEFEFE;}#HyT8cpriTz{fill-rule: evenodd;clip-rule: evenodd;fill: #1E1501;}#B1RL9propM{fill-rule: evenodd;clip-rule: evenodd;fill: #1E1501;}#rJ1xLqTBi6M{fill-rule: evenodd;clip-rule: evenodd;fill: #1E1501;}#SJbl8q6HsTG{fill-rule: evenodd;clip-rule: evenodd;fill: #1E1501;}#HJfeIq6rsaM{fill-rule: evenodd;clip-rule: evenodd;fill: #B45747;}#H1QgUq6SjTz{fill-rule: evenodd;clip-rule: evenodd;fill: #70AC47;}#r1VgIqTBjaf{fill-rule: evenodd;clip-rule: evenodd;fill: #70AC47;}#rJSx85pHoaz{fill-rule: evenodd;clip-rule: evenodd;fill: #70AC47;}#rJ8l896roaz{fill-rule: evenodd;clip-rule: evenodd;fill: #70AC47;}#SJPeI9aBo6f{fill-rule: evenodd;clip-rule: evenodd;fill: #1E1501;}#S1uxL56Bjpf{fill-rule: evenodd;clip-rule: evenodd;fill: #1E1501;}#SkYg896Bi6G{fill-rule: evenodd;clip-rule: evenodd;fill: #1E1501;}#HkclIcaSiaG{fill-rule: evenodd;clip-rule: evenodd;fill: #1E1501;}#HkQLqTrsTM_BJ8sTSsTG{-webkit-animation-name: HkQLqTrsTM_BJ8sTSsTG_Animation;animation-name: HkQLqTrsTM_BJ8sTSsTG_Animation;-webkit-transform-origin: 50% 50%;transform-origin: 50% 50%;transform-box: fill-box;-webkit-transform: scale(0, 0);transform: scale(0, 0);}#SkEIqpSsTG_r1Fn6rsaz{-webkit-transform-origin: 50% 50%;transform-origin: 50% 50%;transform-box: fill-box;-webkit-transform: translate(0px, 0px);transform: translate(0px, 0px);}#BJglIc6HiaG_SyHAprjTM{-webkit-animation-name: BJglIc6HiaG_SyHAprjTM_Animation;animation-name: BJglIc6HiaG_SyHAprjTM_Animation;-webkit-transform-origin: 50% 50%;transform-origin: 50% 50%;transform-box: fill-box;-webkit-transform: translate(0px, 400px);transform: translate(0px, 400px);}#H1U8qTSiTM_rJ5eCHsTz{-webkit-animation-name: H1U8qTSiTM_rJ5eCHsTz_Animation;animation-name: H1U8qTSiTM_rJ5eCHsTz_Animation;-webkit-transform-origin: 50% 50%;transform-origin: 50% 50%;transform-box: fill-box;-webkit-transform: translate(0px, -400px);transform: translate(0px, -400px);}#SkEIqpSsTG{-webkit-animation-name: SkEIqpSsTG_Animation;animation-name: SkEIqpSsTG_Animation;-webkit-transform-origin: 50% 50%;transform-origin: 50% 50%;transform-box: fill-box;opacity: 0;}</style>
 

 <g id="HklLcpri6z">
  <title>background</title>
  <rect id="rkbUqpHiTz" height="402" width="582" y="-1" x="-1"/>
 </g>
 <g id="H1GLqTrsTf">
  <title>Layer 1</title>
  <g id="HkQLqTrsTM_BJ8sTSsTG" data-animator-group="true" data-animator-type="2"><path id="HkQLqTrsTM" d="m521.834,266.264c-0.146,45.767 -10.414,87.915 -31.277,127.356c-15.451,29.211 -35.738,54.668 -60.762,76.314c-26.702,23.102 -56.837,40.125 -90.448,50.908c-18.78,6.023 -38.037,9.688 -57.728,11.215c-37.478,2.908 -73.845,-2.129 -109.049,-15.176c-29.759,-11.029 -56.521,-27.186 -80.366,-48.156c-30.971,-27.24 -54.298,-59.975 -70.166,-97.996c-9.212,-22.074 -15.211,-45.033 -18.254,-68.783c-2.697,-21.045 -3.013,-42.112 -0.772,-63.178c3.972,-37.336 15.071,-72.447 33.766,-105.064c24.433,-42.631 58.047,-76.098 100.927,-100.079c25.23,-14.11 52.189,-23.538 80.741,-28.373c19.803,-3.353 39.713,-4.539 59.734,-3.166c49.812,3.416 94.953,19.811 135.214,49.37c33.655,24.708 59.891,55.776 78.965,92.912c11.498,22.384 19.57,45.946 24.438,70.619c3.414,17.308 4.971,34.798 5.037,51.277z"/></g>
  <g id="SkEIqpSsTG">
   <path id="rJH856Hspz" d="m263.372,347.248c-1.313,0.022 -2.627,0.045 -3.94,0.068c-4.872,-1.224 -7.295,-4.278 -7.693,-9.697c0.272,-2.268 1.1,-4.293 2.745,-5.905c2.989,-2.931 4.497,-6.771 6.438,-10.346c1.354,4.354 4.044,7.851 6.948,11.276c3.198,3.771 2.992,8.756 -0.222,12.155c-1.175,1.243 -2.574,2.116 -4.276,2.449z"/>
  </g>
  <g id="H1U8qTSiTM_rJ5eCHsTz" data-animator-group="true" data-animator-type="0"><g id="H1U8qTSiTM">
   <path id="BkDI5TBoaG" d="m301.036,174.56c0,30.96 -0.023,61.921 0.05,92.882c0.005,2.211 -0.374,3.067 -2.813,2.946c-4.429,-0.219 -4.437,-0.058 -4.437,4.498c0,5.36 0.025,10.72 -0.009,16.079c-0.024,3.885 0.527,3.334 -3.233,3.352c-7.041,0.033 -14.083,0.104 -21.12,-0.043c-2.303,-0.049 -3.144,0.375 -3.072,2.938c0.207,7.356 0.021,14.721 0.11,22.079c0.021,1.785 -0.31,2.621 -2.323,2.443c-2.145,-0.189 -4.33,-0.189 -6.473,0c-2.019,0.178 -2.344,-0.664 -2.322,-2.445c0.09,-7.119 0.037,-14.24 0.037,-21.36c0,-3.602 0,-3.602 -3.721,-3.602c-6.48,0 -12.96,0.02 -19.439,-0.008c-3.719,-0.016 -3.215,0.479 -3.232,-3.115c-0.03,-6.16 -0.068,-12.322 0.029,-18.48c0.028,-1.787 -0.317,-2.504 -2.322,-2.453c-4.913,0.125 -4.916,0.016 -4.916,-4.991c0,-61.042 0,-122.083 0,-183.125c0,-3.366 0,-3.366 -3.477,-3.366c-4.719,0 -9.44,-0.049 -14.159,0.028c-1.481,0.024 -2.077,-0.283 -2.09,-1.946c-0.046,-6.244 -0.112,-6.244 6.164,-6.244c8.4,0 16.802,-0.044 25.2,0.037c1.703,0.017 2.359,-0.298 2.331,-2.198c-0.116,-7.678 -0.116,-15.36 0,-23.039c0.028,-1.897 -0.622,-2.255 -2.33,-2.199c-3.677,0.121 -7.36,-0.022 -11.038,0.066c-1.49,0.036 -2.113,-0.29 -2.079,-1.953c0.105,-5.118 0.106,-10.241 -0.001,-15.359c-0.033,-1.669 0.604,-1.948 2.083,-1.946c25.04,0.038 50.081,0.038 75.122,0c1.484,-0.002 2.112,0.287 2.078,1.95c-0.105,5.118 -0.105,10.241 0.001,15.359c0.034,1.668 -0.6,1.98 -2.083,1.948c-3.918,-0.085 -7.841,0.029 -11.759,-0.058c-1.493,-0.033 -2.094,0.299 -2.075,1.955c0.084,7.839 0.085,15.68 -0.001,23.52c-0.019,1.669 0.606,1.952 2.084,1.944c10.56,-0.052 21.121,0.009 31.681,-0.064c1.71,-0.012 2.348,0.315 2.327,2.204c-0.063,5.993 0.023,5.994 -5.939,5.994c-3.28,0 -6.568,0.146 -9.837,-0.05c-2.324,-0.139 -3.072,0.4 -3.063,2.939c0.103,30.961 0.066,61.922 0.066,92.883zm-72.916,-42.536c-0.637,0.017 -1.279,0.088 -1.912,0.037c-1.113,-0.089 -1.546,0.315 -1.556,1.483c-0.01,1.208 0.497,1.528 1.577,1.446c0.633,-0.049 1.274,0.023 1.912,0.041c-0.012,2.519 -0.023,5.038 -0.035,7.556c-1.3,0.201 -0.98,1.225 -0.986,2.028c-0.022,2.985 -0.004,5.971 -0.002,8.957c-1.08,0.225 -2.676,-0.467 -2.476,1.784c0.177,1.988 1.647,0.899 2.476,1.3c0.015,5.74 0.028,11.481 0.043,17.221c-1.039,-0.011 -1.434,0.439 -1.43,1.533c0.005,1.109 0.615,1.241 1.43,1.297c-0.018,5.037 0.059,10.078 -0.096,15.11c-0.064,2.055 0.432,2.755 2.625,2.722c8.795,-0.131 17.592,-0.063 26.388,-0.042c0.955,0.002 2.174,-0.392 2.229,1.334c0.058,1.862 -1.225,1.517 -2.288,1.519c-8.797,0.014 -17.594,0.067 -26.389,-0.03c-1.974,-0.022 -2.57,0.512 -2.563,2.53c0.071,20.55 0.079,41.102 -0.009,61.652c-0.01,2.188 0.666,2.632 2.715,2.625c21.031,-0.072 42.063,-0.08 63.093,0.008c2.276,0.01 2.95,-0.539 2.943,-2.885c-0.08,-29.986 -0.053,-59.973 -0.053,-89.96c0,-8.796 0.012,-17.592 -0.02,-26.388c-0.003,-0.852 0.494,-2.033 -0.977,-2.315c0.012,-20.316 0.003,-40.631 0.075,-60.947c0.005,-1.692 -0.632,-1.942 -2.086,-1.921c-4.878,0.073 -9.759,0.028 -14.637,0.028c-15.918,0 -31.834,0.009 -47.752,-0.016c-1.385,-0.002 -2.35,-0.087 -2.338,1.905c0.101,16.796 0.082,33.593 0.099,50.388zm31.578,-61.397c5.994,0 11.987,-0.034 17.979,0.026c1.322,0.013 1.797,-0.328 1.786,-1.727c-0.062,-7.831 -0.063,-15.662 0.001,-23.493c0.011,-1.416 -0.492,-1.718 -1.798,-1.714c-11.906,0.042 -23.813,0.047 -35.72,-0.005c-1.43,-0.006 -1.927,0.326 -1.912,1.85c0.077,7.75 0.079,15.502 -0.001,23.253c-0.016,1.541 0.512,1.854 1.925,1.838c5.914,-0.068 11.827,-0.028 17.74,-0.028zm1.361,203.063c-8.791,0 -17.584,0.044 -26.375,-0.037c-1.757,-0.016 -2.389,0.435 -2.329,2.271c0.13,3.992 0.093,7.992 0.015,11.986c-0.029,1.49 0.325,2.125 1.979,2.121c17.743,-0.051 35.487,-0.051 53.231,0c1.682,0.004 1.98,-0.684 1.953,-2.145c-0.073,-3.994 -0.119,-7.996 0.017,-11.988c0.063,-1.871 -0.631,-2.259 -2.354,-2.244c-8.712,0.077 -17.424,0.036 -26.137,0.036zm-1.041,-234.745c10.95,0 21.901,-0.059 32.85,0.052c2.063,0.021 2.612,-0.597 2.445,-2.545c-0.17,-1.984 -0.151,-4.002 -0.003,-5.989c0.128,-1.71 -0.468,-2.136 -2.135,-2.118c-7.911,0.085 -15.825,0.038 -23.738,0.038c-14.067,0 -28.134,0.059 -42.201,-0.06c-2.207,-0.019 -2.749,0.635 -2.563,2.673c0.172,1.902 0.166,3.844 0,5.748c-0.159,1.828 0.479,2.256 2.257,2.243c11.028,-0.084 22.059,-0.042 33.088,-0.042z"/>
   <path id="rkuU5aBsTG" d="m227.118,153.573c-0.002,-2.985 -0.021,-5.971 0.002,-8.957c0.006,-0.803 -0.313,-1.827 0.986,-2.028c22.218,0 44.436,0 66.653,0c1.471,0.282 0.974,1.463 0.977,2.315c0.031,8.796 0.02,17.592 0.02,26.388c0,29.987 -0.027,59.974 0.053,89.96c0.007,2.346 -0.667,2.895 -2.943,2.885c-21.03,-0.088 -42.062,-0.08 -63.093,-0.008c-2.049,0.007 -2.725,-0.438 -2.715,-2.625c0.088,-20.55 0.08,-41.102 0.009,-61.652c-0.007,-2.019 0.59,-2.552 2.563,-2.53c8.795,0.097 17.592,0.043 26.389,0.03c1.063,-0.002 2.346,0.343 2.288,-1.519c-0.055,-1.726 -1.273,-1.332 -2.229,-1.334c-8.796,-0.02 -17.593,-0.088 -26.388,0.042c-2.193,0.033 -2.689,-0.667 -2.625,-2.722c0.154,-5.033 0.078,-10.073 0.095,-15.11c6.39,-0.189 12.774,0.003 19.161,0.226c1.138,0.04 2.279,0.166 2.236,-1.616c-0.044,-1.795 -1.301,-1.278 -2.217,-1.289c-6.393,-0.076 -12.787,-0.106 -19.18,-0.152c-0.015,-5.74 -0.028,-11.481 -0.043,-17.221c0.959,-0.024 1.917,-0.068 2.875,-0.068c13.514,-0.005 27.027,-0.026 40.54,0.027c1.605,0.006 2.495,-0.33 2.124,-2.099c-0.314,-1.505 -1.562,-0.835 -2.363,-0.839c-14.391,-0.069 -28.783,-0.08 -43.175,-0.104z"/>
   <path id="HJKU5aSjpG" d="m294.759,142.588c-22.218,0 -44.436,0 -66.653,0c0.012,-2.519 0.023,-5.038 0.035,-7.556c7.822,0.065 15.646,0.138 23.469,0.185c0.944,0.005 2.071,0.434 2.126,-1.354c0.056,-1.849 -1.037,-1.579 -2.146,-1.59c-7.823,-0.077 -15.646,-0.165 -23.47,-0.25c-0.017,-16.796 0.002,-33.592 -0.098,-50.388c-0.012,-1.993 0.953,-1.908 2.338,-1.905c15.918,0.025 31.834,0.016 47.752,0.016c4.878,0 9.759,0.045 14.637,-0.028c1.454,-0.021 2.091,0.229 2.086,1.921c-0.073,20.318 -0.064,40.633 -0.076,60.949z"/>
   <path id="HycLqTBipG" d="m259.698,70.627c-5.913,0 -11.826,-0.04 -17.739,0.029c-1.413,0.017 -1.94,-0.297 -1.925,-1.838c0.08,-7.75 0.078,-15.503 0.001,-23.253c-0.015,-1.524 0.482,-1.856 1.912,-1.85c11.906,0.052 23.813,0.047 35.72,0.005c1.306,-0.004 1.809,0.298 1.798,1.714c-0.063,7.831 -0.063,15.662 -0.001,23.493c0.011,1.399 -0.464,1.74 -1.786,1.727c-5.993,-0.061 -11.986,-0.027 -17.98,-0.027z"/>
   <path id="HJjIcTBi6G" d="m261.059,273.69c8.713,0 17.425,0.041 26.137,-0.035c1.724,-0.015 2.418,0.373 2.354,2.244c-0.136,3.992 -0.09,7.994 -0.017,11.988c0.027,1.461 -0.271,2.148 -1.953,2.145c-17.744,-0.051 -35.488,-0.051 -53.231,0c-1.654,0.004 -2.009,-0.631 -1.979,-2.121c0.078,-3.994 0.115,-7.994 -0.015,-11.986c-0.06,-1.837 0.572,-2.287 2.329,-2.271c8.791,0.08 17.584,0.036 26.375,0.036z"/>
   <path id="Hy2L9TBipM" d="m260.018,38.945c-11.029,0 -22.061,-0.042 -33.089,0.042c-1.778,0.013 -2.416,-0.415 -2.257,-2.243c0.166,-1.904 0.172,-3.846 0,-5.748c-0.186,-2.038 0.356,-2.692 2.563,-2.673c14.067,0.118 28.134,0.06 42.201,0.06c7.913,0 15.827,0.048 23.738,-0.038c1.667,-0.019 2.263,0.407 2.135,2.118c-0.148,1.987 -0.167,4.005 0.003,5.989c0.167,1.948 -0.383,2.565 -2.445,2.545c-10.948,-0.111 -21.899,-0.052 -32.849,-0.052z"/>
   <path id="HyT8cpriTz" d="m227.118,153.573c14.393,0.024 28.784,0.035 43.176,0.104c0.802,0.004 2.049,-0.666 2.363,0.839c0.371,1.769 -0.519,2.105 -2.124,2.099c-13.513,-0.054 -27.026,-0.032 -40.54,-0.027c-0.958,0 -1.916,0.044 -2.875,0.068c-0.828,-0.4 -2.299,0.688 -2.476,-1.3c-0.2,-2.251 1.396,-1.559 2.476,-1.783z"/>
   <path id="B1RL9propM" d="m228.12,132.024c7.824,0.084 15.646,0.173 23.47,0.25c1.109,0.011 2.202,-0.259 2.146,1.59c-0.055,1.788 -1.182,1.359 -2.126,1.354c-7.823,-0.047 -15.646,-0.12 -23.469,-0.185c-0.638,-0.018 -1.279,-0.09 -1.912,-0.042c-1.08,0.082 -1.587,-0.238 -1.577,-1.446c0.01,-1.167 0.442,-1.572 1.556,-1.483c0.632,0.051 1.275,-0.021 1.912,-0.038z"/>
   <path id="rJ1xLqTBi6M" d="m227.161,173.877c6.393,0.045 12.787,0.076 19.18,0.152c0.916,0.011 2.173,-0.506 2.217,1.289c0.043,1.781 -1.099,1.656 -2.236,1.616c-6.387,-0.223 -12.771,-0.415 -19.161,-0.226c-0.813,-0.056 -1.424,-0.188 -1.429,-1.297c-0.005,-1.095 0.39,-1.544 1.429,-1.534z"/>
  </g></g>
  <g id="BJglIc6HiaG_SyHAprjTM" data-animator-group="true" data-animator-type="0"><g id="BJglIc6HiaG">
   <path id="SJbl8q6HsTG" d="m261.011,377.313c0.672,-0.768 0.345,-1.67 0.349,-2.486c0.029,-7.121 -0.006,-14.242 0.027,-21.361c0.016,-3.238 0.951,-4.629 3.245,-5.117c2.349,-0.5 4.401,0.791 4.731,3.174c0.248,1.789 0.216,3.619 0.753,5.484c0.191,-1.463 0.367,-2.928 0.576,-4.389c2.19,-15.301 12.311,-24.961 27.655,-26.66c12.566,-1.391 24.692,0.715 36.7,4.123c3.458,0.98 4.199,3.832 2.225,6.896c-8.222,12.76 -17.22,24.953 -30.963,32.465c-10.757,5.881 -22.089,5.107 -30.603,-1.828c-2.796,-2.277 -2.743,-2.236 -4.952,0.594c-1.139,1.459 -1.643,2.955 -1.624,4.832c0.085,8.561 0.068,17.121 0.009,25.682c-0.011,1.555 0.294,2.324 1.991,2.871c6.938,2.232 11.531,6.928 13.707,13.928c0.276,0.889 0.312,1.668 1.827,1.488c10.041,-1.184 19.44,5.238 21.95,14.982c0.462,1.791 1.057,2.256 2.892,1.918c10.364,-1.914 20.355,4.119 23.401,14.148c0.492,1.623 1.178,2.061 2.813,2.107c10.517,0.305 18.634,7.125 20.519,17.09c2.168,11.463 -6.733,22.793 -18.398,23.412c-0.639,0.033 -1.279,0.035 -1.92,0.035c-48.402,0.002 -96.806,0.012 -145.208,-0.006c-10.32,-0.002 -18.544,-6.682 -20.41,-16.459c-2.285,-11.967 6.335,-23.268 18.502,-23.949c2.739,-0.154 3.971,-0.865 4.967,-3.627c3.353,-9.283 13.456,-14.756 23.179,-12.896c1.492,0.285 2.054,0.191 2.47,-1.398c2.679,-10.215 11.679,-16.449 22.138,-15.344c1.123,0.119 1.395,-0.27 1.643,-1.119c2.174,-7.408 6.979,-12.232 14.341,-14.492c0.987,-0.303 1.483,-0.73 1.463,-1.816c-0.05,-2.641 0.155,-5.295 -0.069,-7.916c-0.201,-2.35 -2.045,-3.889 -3.534,-5.537c-0.446,-0.494 -0.82,-0.082 -1.22,0.199c-14.095,9.92 -24.979,9.703 -38.846,-0.744c-7.698,-5.801 -13.688,-13.176 -19.279,-20.914c-1.498,-2.074 -2.901,-4.219 -4.297,-6.361c-2.533,-3.893 -1.381,-6.971 3.012,-8.193c10.139,-2.826 20.412,-4.771 30.992,-4.264c8.294,0.396 16.258,2.146 22.704,7.785c6.477,5.666 9.324,13.195 10.114,21.611c0.064,0.679 -0.232,1.449 0.428,2.052zm-68.948,81.508c-8.775,-0.152 -14.631,7.553 -12.274,15.502c1.647,5.555 6.242,8.678 12.87,8.678c47.428,0.008 94.856,0.016 142.285,-0.039c1.668,-0.002 3.262,0.549 4.969,0.23c6.915,-1.289 11.499,-7.941 9.912,-14.525c-1.712,-7.102 -9.194,-11.33 -16.005,-9.047c-3.526,1.184 -5.745,-0.301 -5.924,-4.016c-0.09,-1.846 -0.226,-3.678 -0.943,-5.398c-3.104,-7.439 -12.216,-10.146 -18.857,-5.51c-1.796,1.256 -3.536,2.059 -5.485,0.801c-1.897,-1.225 -2.362,-3.102 -1.663,-5.27c0.142,-0.443 0.105,-0.951 0.113,-1.43c0.161,-9.16 -8.754,-14.977 -17.719,-11.566c-3.465,1.318 -6.086,-0.42 -6.198,-4.104c-0.046,-1.514 0.048,-3.035 -0.366,-4.523c-1.65,-5.938 -7.419,-10.104 -13.1,-9.443c-6.605,0.768 -11.321,5.898 -11.573,12.594c-0.205,5.465 -1.943,6.727 -7.023,5.137c-9.41,-2.945 -18.637,4.383 -16.457,14.271c0.387,1.756 -0.337,2.986 -1.518,4.012c-1.182,1.027 -2.623,1.143 -4.048,0.49c-0.794,-0.363 -1.526,-0.863 -2.276,-1.318c-5.819,-3.543 -13.037,-2.061 -16.805,3.41c-1.62,2.35 -1.816,5.051 -2.181,7.746c-0.45,3.326 -2.224,4.563 -5.482,3.973c-1.573,-0.286 -3.124,-0.696 -4.252,-0.655zm132.243,-116.986c-0.115,-0.145 -0.23,-0.289 -0.345,-0.432c-2.901,0.775 -5.823,1.482 -8.7,2.344c-12.117,3.629 -23.853,8.111 -34.478,15.174c-1.919,1.275 -1.701,1.967 -0.07,3.156c5.657,4.119 11.745,4.648 18.141,2.186c8.554,-3.293 14.758,-9.621 20.611,-16.342c1.702,-1.953 3.232,-4.053 4.841,-6.086zm-118.857,20.305c6.202,8.662 12.958,16.625 22.601,21.4c7.08,3.506 14.117,3.666 20.773,-1.326c1.48,-1.111 1.652,-1.695 -0.061,-2.844c-9.037,-6.066 -18.954,-10.203 -29.213,-13.619c-4.597,-1.529 -9.249,-2.859 -14.1,-3.611zm45.056,9.041c0.335,-1.361 -0.2,-2.297 -0.583,-3.23c-2.119,-5.145 -5.816,-8.725 -10.967,-10.777c-7.811,-3.113 -15.871,-2.85 -24.07,-1.564c12.418,3.907 24.328,8.916 35.62,15.571zm28.477,-20.725c11.105,-6.707 22.869,-11.561 35.218,-15.164c-5.596,-1.082 -11.129,-1.283 -16.692,-0.373c-4.395,0.717 -8.569,1.996 -12.108,4.799c-3.454,2.734 -5.898,6.136 -6.418,10.738z"/>
   <path id="HJfeIq6rsaM" d="m192.063,458.821c1.128,-0.041 2.679,0.369 4.25,0.654c3.259,0.59 5.032,-0.646 5.482,-3.973c0.364,-2.695 0.561,-5.396 2.181,-7.746c3.769,-5.471 10.986,-6.953 16.805,-3.41c0.75,0.455 1.482,0.955 2.276,1.318c1.425,0.652 2.866,0.537 4.048,-0.49c1.181,-1.025 1.904,-2.256 1.518,-4.012c-2.18,-9.889 7.047,-17.217 16.457,-14.271c5.08,1.59 6.818,0.328 7.023,-5.137c0.252,-6.695 4.968,-11.826 11.573,-12.594c5.681,-0.66 11.449,3.506 13.1,9.443c0.414,1.488 0.32,3.01 0.366,4.523c0.112,3.684 2.733,5.422 6.198,4.104c8.965,-3.41 17.88,2.406 17.719,11.566c-0.008,0.479 0.028,0.986 -0.113,1.43c-0.699,2.168 -0.234,4.045 1.663,5.27c1.949,1.258 3.689,0.455 5.485,-0.801c6.642,-4.637 15.753,-1.93 18.857,5.51c0.718,1.721 0.854,3.553 0.943,5.398c0.179,3.715 2.397,5.199 5.924,4.016c6.811,-2.283 14.293,1.945 16.005,9.047c1.587,6.584 -2.997,13.236 -9.912,14.525c-1.707,0.318 -3.301,-0.232 -4.969,-0.23c-47.429,0.055 -94.857,0.047 -142.285,0.039c-6.627,0 -11.223,-3.123 -12.87,-8.678c-2.355,-7.948 3.501,-15.653 12.276,-15.501zm30.839,-4.238c-5.566,-0.008 -10.635,3.072 -12.542,7.422c-0.939,2.143 -0.348,4.246 1.531,5.447c1.799,1.148 3.806,0.797 5.351,-0.957c0.422,-0.479 0.792,-1.004 1.208,-1.488c1.799,-2.092 3.938,-2.814 6.636,-1.84c2.426,0.873 4.566,0.168 5.371,-1.59c0.813,-1.775 -0.321,-4.604 -2.346,-5.734c-1.714,-0.955 -3.569,-1.373 -5.209,-1.26zm41.77,5.289c-4.876,0.02 -8.299,1.588 -11.162,4.338c-1.768,1.697 -1.893,4.338 -0.497,5.832c1.376,1.473 3.872,1.711 5.648,0.221c2.64,-2.215 5.161,-2.424 8.046,-0.471c1.702,1.152 3.546,0.908 4.971,-0.674c1.473,-1.633 1.431,-3.682 0.046,-5.451c-2.005,-2.561 -4.622,-3.836 -7.052,-3.795zm37.553,-5.178c-1.779,-0.063 -3.486,0.314 -5.152,0.885c-2.485,0.85 -3.567,2.682 -2.951,4.928c0.617,2.25 2.54,3.422 5.066,2.646c3.259,-1.002 5.552,-0.012 7.407,2.68c1.398,2.029 3.524,2.572 5.373,1.535c1.826,-1.023 2.44,-3.178 1.552,-5.436c-1.843,-4.681 -5.742,-7.179 -11.295,-7.238zm-36.404,-23.164c-4.152,0.002 -8.04,1.531 -10.447,4.014c-1.506,1.553 -1.649,3.934 -0.328,5.443c1.33,1.518 3.883,1.967 5.389,0.652c2.732,-2.385 5.36,-2.67 8.453,-0.602c1.836,1.227 3.983,0.561 5.093,-1.072c1.195,-1.76 0.99,-3.955 -0.581,-5.422c-2.194,-2.046 -4.748,-3.22 -7.579,-3.013z"/>
   <path id="H1QgUq6SjTz" d="m324.306,341.835c-1.609,2.033 -3.14,4.133 -4.841,6.086c-5.854,6.721 -12.058,13.049 -20.611,16.342c-6.396,2.463 -12.483,1.934 -18.141,-2.186c-1.631,-1.189 -1.849,-1.881 0.07,-3.156c10.625,-7.063 22.36,-11.545 34.478,-15.174c2.877,-0.861 5.799,-1.568 8.7,-2.344c0.115,0.143 0.23,0.287 0.345,0.432z"/>
   <path id="r1VgIqTBjaf" d="m205.449,362.14c4.851,0.752 9.503,2.082 14.101,3.611c10.259,3.416 20.176,7.553 29.213,13.619c1.713,1.148 1.541,1.732 0.061,2.844c-6.656,4.992 -13.693,4.832 -20.773,1.326c-9.644,-4.775 -16.401,-12.738 -22.602,-21.4z"/>
   <path id="rJSx85pHoaz" d="m250.505,371.181c-11.292,-6.654 -23.202,-11.664 -35.62,-15.572c8.199,-1.285 16.259,-1.549 24.07,1.564c5.15,2.053 8.848,5.633 10.967,10.777c0.383,0.934 0.918,1.869 0.583,3.231z"/>
   <path id="rJ8l896roaz" d="m278.982,350.456c0.521,-4.602 2.964,-8.004 6.417,-10.738c3.539,-2.803 7.714,-4.082 12.108,-4.799c5.563,-0.91 11.097,-0.709 16.692,0.373c-12.348,3.604 -24.112,8.457 -35.217,15.164z"/>
   <path id="SJPeI9aBo6f" d="m222.902,454.583c1.64,-0.113 3.495,0.305 5.209,1.26c2.024,1.131 3.159,3.959 2.346,5.734c-0.805,1.758 -2.945,2.463 -5.371,1.59c-2.697,-0.975 -4.837,-0.252 -6.636,1.84c-0.416,0.484 -0.786,1.01 -1.208,1.488c-1.545,1.754 -3.551,2.105 -5.351,0.957c-1.879,-1.201 -2.471,-3.305 -1.531,-5.447c1.907,-4.35 6.975,-7.43 12.542,-7.422z"/>
   <path id="S1uxL56Bjpf" d="m264.672,459.872c2.43,-0.041 5.047,1.234 7.052,3.795c1.385,1.77 1.427,3.818 -0.046,5.451c-1.425,1.582 -3.269,1.826 -4.971,0.674c-2.885,-1.953 -5.406,-1.744 -8.046,0.471c-1.776,1.49 -4.272,1.252 -5.648,-0.221c-1.396,-1.494 -1.271,-4.135 0.497,-5.832c2.864,-2.75 6.286,-4.318 11.162,-4.338z"/>
   <path id="SkYg896Bi6G" d="m302.225,454.696c5.553,0.057 9.452,2.555 11.295,7.236c0.889,2.258 0.274,4.412 -1.552,5.436c-1.849,1.037 -3.975,0.494 -5.373,-1.535c-1.855,-2.691 -4.148,-3.682 -7.407,-2.68c-2.526,0.775 -4.449,-0.396 -5.066,-2.646c-0.616,-2.246 0.466,-4.078 2.951,-4.928c1.666,-0.57 3.373,-0.947 5.152,-0.883z"/>
   <path id="HkclIcaSiaG" d="m265.821,431.53c2.831,-0.207 5.385,0.967 7.578,3.014c1.571,1.467 1.776,3.662 0.581,5.422c-1.109,1.633 -3.257,2.299 -5.093,1.072c-3.093,-2.068 -5.721,-1.783 -8.453,0.602c-1.506,1.314 -4.059,0.865 -5.389,-0.652c-1.321,-1.51 -1.178,-3.891 0.328,-5.443c2.408,-2.483 6.295,-4.013 10.448,-4.015z"/>
  </g></g>
 </g>
<script>(function(){var a=document.querySelector('#HyL9pBo6f'),b=a.querySelectorAll('style'),c=function(d){b.forEach(function(f){var g=f.textContent;g&amp;&amp;(f.textContent=g.replace(/transform-box:[^;\r\n]*/gi,'transform-box: '+d))})};c('initial'),window.requestAnimationFrame(function(){return c('fill-box')})})();</script></svg>